<svg xmlns="http://www.w3.org/2000/svg" viewBox="0 0 22 24">
  <defs>
    <style>
      .cls-1, .cls-2 {
        fill: none;
      }

      .cls-1 {
        stroke: #fff;
        stroke-width: 1.5px;
      }

      .cls-3, .cls-4 {
        stroke: none;
      }

      .cls-4 {
        fill: #fff;
      }
    </style>
  </defs>
  <g id="mypage" transform="translate(-1.205 -3)">
    <path id="패스_48" data-name="패스 48" class="cls-1" d="M10.547,0V6.9" transform="translate(1.658 3)"/>
    <g id="빼기_1" data-name="빼기 1" class="cls-2" transform="translate(1.205 13.702)">
      <path class="cls-3" d="M22,13.3H0V3.8C0,1.705,1.161,0,2.589,0H19.411C20.839,0,22,1.705,22,3.8v9.5Z"/>
      <path class="cls-4" d="M 20.5 11.79800796508789 L 20.5 3.800548791885376 C 20.5 2.373428821563721 19.79507064819336 1.499998807907104 19.41122055053711 1.499998807907104 L 2.588840007781982 1.499998807907104 C 2.204969882965088 1.499998807907104 1.5 2.373428821563721 1.5 3.800338745117188 L 1.501111507415771 11.79685020446777 L 20.5 11.79800796508789 M 22 13.29809856414795 L 21.99871063232422 13.29809856414795 L 0.001320000039413571 13.2967586517334 L -1.77635683940025e-15 3.800548791885376 C -1.77635683940025e-15 1.705068826675415 1.161329984664917 -1.194763171952218e-06 2.588840007781982 -1.194763171952218e-06 L 19.41122055053711 -1.194763171952218e-06 C 20.83867073059082 -1.194763171952218e-06 22 1.705068826675415 22 3.800548791885376 L 22 13.2967586517334 L 22 13.29809856414795 Z"/>
    </g>
  </g>
</svg>
